<?xml version="1.0" encoding="UTF-8" standalone="no"?>
<!-- Created with Inkscape (http://www.inkscape.org/) -->

<svg
   version="1.1"
   id="svg2"
   width="1000"
   height="666.66669"
   viewBox="0 0 1000 666.66669"
   sodipodi:docname="3202831.eps"
   xmlns:inkscape="http://www.inkscape.org/namespaces/inkscape"
   xmlns:sodipodi="http://sodipodi.sourceforge.net/DTD/sodipodi-0.dtd"
   xmlns="http://www.w3.org/2000/svg"
   xmlns:svg="http://www.w3.org/2000/svg">
  <defs
     id="defs6" />
  <sodipodi:namedview
     id="namedview4"
     pagecolor="#ffffff"
     bordercolor="#000000"
     borderopacity="0.25"
     inkscape:showpageshadow="2"
     inkscape:pageopacity="0.0"
     inkscape:pagecheckerboard="0"
     inkscape:deskcolor="#d1d1d1" />
  <g
     id="g8"
     inkscape:groupmode="layer"
     inkscape:label="ink_ext_XXXXXX"
     transform="matrix(1.3333333,0,0,-1.3333333,0,666.66667)">
    <g
       id="g10"
       transform="scale(0.1)">
      <path
         d="M 7500,0 H 0 V 5000 H 7500 V 0"
         style="fill:#ebebe9;fill-opacity:1;fill-rule:nonzero;stroke:none"
         id="path12" />
      <path
         d="M 6331.15,2855.68 H 4145.76 V 3970.07 H 6331.15 V 2855.68"
         style="fill:#ffffff;fill-opacity:1;fill-rule:nonzero;stroke:none"
         id="path14" />
      <path
         d="M 6331.15,781.34 H 4145.76 V 2722.01 H 6331.15 V 781.34"
         style="fill:#ffffff;fill-opacity:1;fill-rule:nonzero;stroke:none"
         id="path16" />
      <path
         d="M 1619.5,0 H 0 V 5000 H 1619.5 V 0"
         style="fill:#2e313e;fill-opacity:1;fill-rule:nonzero;stroke:none"
         id="path18" />
      <path
         d="m 7160.11,4785.45 c 0,-63.25 -51.27,-114.53 -114.53,-114.53 -63.25,0 -114.53,51.28 -114.53,114.53 0,63.25 51.28,114.53 114.53,114.53 63.26,0 114.53,-51.28 114.53,-114.53"
         style="fill:#20b046;fill-opacity:1;fill-rule:nonzero;stroke:none"
         id="path20" />
      <g
         id="g22"
         transform="scale(10)">
        <text
           xml:space="preserve"
           transform="matrix(1,0,0,-1,648.941,476.758)"
           style="font-variant:normal;font-weight:normal;font-size:6px;font-family:Lato;-inkscape-font-specification:Lato-Regular;writing-mode:lr-tb;fill:#2e313e;fill-opacity:1;fill-rule:nonzero;stroke:none"
           id="text26"><tspan
             x="0 2.879904 7.6826382 11.442398 14.90723 20.477526 22.013525 23.694208 27.296747 30.551628 34.964706"
             y="0"
             sodipodi:role="line"
             id="tspan24">LOREM IPSUM</tspan></text>
      </g>
      <path
         d="M 7347.55,4103.73 H 1619.5 v 499.92 h 5728.05 v -499.92"
         style="fill:#ffffff;fill-opacity:1;fill-rule:nonzero;stroke:none"
         id="path28" />
      <g
         id="g30"
         transform="scale(10)">
        <text
           xml:space="preserve"
           transform="matrix(1,0,0,-1,218.493,440.258)"
           style="font-variant:normal;font-weight:normal;font-size:9.43037px;font-family:Lato;-inkscape-font-specification:Lato-Regular;writing-mode:lr-tb;fill:#2e313e;fill-opacity:1;fill-rule:nonzero;stroke:none"
           id="text34"><tspan
             x="0 4.4980583 9.8450785 13.084324 18.06356 25.820402 28.234577 30.497866 35.783512 39.866863 45.124191"
             y="0"
             sodipodi:role="line"
             id="tspan32">Lorem ipsum</tspan></text>
      </g>
      <path
         d="m 2027.9,4425.04 c 0,-15.99 -12.96,-28.95 -28.95,-28.95 -15.98,0 -28.94,12.96 -28.94,28.95 0,15.98 12.96,28.94 28.94,28.94 15.99,0 28.95,-12.96 28.95,-28.94"
         style="fill:#2e313e;fill-opacity:1;fill-rule:nonzero;stroke:none"
         id="path36" />
      <path
         d="m 2042.12,4352.93 c 0,23.84 -19.33,43.16 -43.17,43.16 -23.84,0 -43.16,-19.32 -43.16,-43.16 h 86.33"
         style="fill:#2e313e;fill-opacity:1;fill-rule:nonzero;stroke:none"
         id="path38" />
      <path
         d="m 2084.45,4403.45 c 0,-47.21 -38.28,-85.49 -85.5,-85.49 -47.22,0 -85.49,38.28 -85.49,85.49 0,47.22 38.27,85.5 85.49,85.5 47.22,0 85.5,-38.28 85.5,-85.5 z"
         style="fill:none;stroke:#342821;stroke-width:8.60984;stroke-linecap:butt;stroke-linejoin:miter;stroke-miterlimit:10;stroke-dasharray:none;stroke-opacity:1"
         id="path40" />
      <g
         id="g42"
         transform="scale(10)">
        <text
           xml:space="preserve"
           transform="matrix(1,0,0,-1,218.607,418.8)"
           style="font-variant:normal;font-weight:900;font-size:21.326px;font-family:Lato;-inkscape-font-specification:Lato-Black;writing-mode:lr-tb;fill:#2e313e;fill-opacity:1;fill-rule:nonzero;stroke:none"
           id="text46"><tspan
             x="0 12.36908 24.738159 29.855839 42.224918 54.593998"
             y="0"
             sodipodi:role="line"
             id="tspan44">20,897</tspan></text>
        <text
           xml:space="preserve"
           transform="matrix(1,0,0,-1,352.471,440.2578)"
           style="font-variant:normal;font-weight:normal;font-size:9.43037px;font-family:Lato;-inkscape-font-specification:Lato-Regular;writing-mode:lr-tb;fill:#2e313e;fill-opacity:1;fill-rule:nonzero;stroke:none"
           id="text50"><tspan
             x="0 4.4980583 9.8450785 13.084324 18.06356 25.820402 28.234577 30.497866 35.783512 39.866863 45.124191"
             y="0"
             sodipodi:role="line"
             id="tspan48">Lorem ipsum</tspan></text>
      </g>
      <path
         d="m 3367.68,4425.04 c 0,-15.99 -12.96,-28.95 -28.95,-28.95 -15.98,0 -28.94,12.96 -28.94,28.95 0,15.98 12.96,28.94 28.94,28.94 15.99,0 28.95,-12.96 28.95,-28.94"
         style="fill:#20b046;fill-opacity:1;fill-rule:nonzero;stroke:none"
         id="path52" />
      <path
         d="m 3381.9,4352.93 c 0,23.84 -19.33,43.16 -43.17,43.16 -23.84,0 -43.16,-19.32 -43.16,-43.16 h 86.33"
         style="fill:#20b046;fill-opacity:1;fill-rule:nonzero;stroke:none"
         id="path54" />
      <g
         id="g56"
         transform="scale(10)">
        <text
           xml:space="preserve"
           transform="matrix(1,0,0,-1,352.585,418.8)"
           style="font-variant:normal;font-weight:900;font-size:21.326px;font-family:Lato;-inkscape-font-specification:Lato-Black;writing-mode:lr-tb;fill:#20b046;fill-opacity:1;fill-rule:nonzero;stroke:none"
           id="text60"><tspan
             x="0 12.36908 17.48732 29.8564 42.225479"
             y="0"
             sodipodi:role="line"
             id="tspan58">5,894</tspan></text>
      </g>
      <g
         id="g62"
         transform="scale(10)">
        <text
           xml:space="preserve"
           transform="matrix(1,0,0,-1,486.449,440.258)"
           style="font-variant:normal;font-weight:normal;font-size:9.43037px;font-family:Lato;-inkscape-font-specification:Lato-Regular;writing-mode:lr-tb;fill:#2e313e;fill-opacity:1;fill-rule:nonzero;stroke:none"
           id="text66"><tspan
             x="0 4.4980335 9.8450537 13.0843 18.063536 25.820377 28.234552 30.497841 35.783485 39.866837 45.124142"
             y="0"
             sodipodi:role="line"
             id="tspan64">Lorem ipsum</tspan></text>
      </g>
      <path
         d="m 4707.46,4425.04 c 0,-15.99 -12.96,-28.95 -28.95,-28.95 -15.98,0 -28.94,12.96 -28.94,28.95 0,15.98 12.96,28.94 28.94,28.94 15.99,0 28.95,-12.96 28.95,-28.94"
         style="fill:#2e313e;fill-opacity:1;fill-rule:nonzero;stroke:none"
         id="path68" />
      <path
         d="m 4721.68,4352.93 c 0,23.84 -19.33,43.16 -43.17,43.16 -23.84,0 -43.16,-19.32 -43.16,-43.16 h 86.33"
         style="fill:#2e313e;fill-opacity:1;fill-rule:nonzero;stroke:none"
         id="path70" />
      <g
         id="g72"
         transform="scale(10)">
        <text
           xml:space="preserve"
           transform="matrix(1,0,0,-1,486.563,418.8)"
           style="font-variant:normal;font-weight:900;font-size:21.326px;font-family:Lato;-inkscape-font-specification:Lato-Black;writing-mode:lr-tb;fill:#2e313e;fill-opacity:1;fill-rule:nonzero;stroke:none"
           id="text76"><tspan
             x="0 12.36908 17.48732 29.8564 42.225479"
             y="0"
             sodipodi:role="line"
             id="tspan74">3,893</tspan></text>
        <text
           xml:space="preserve"
           transform="matrix(1,0,0,-1,620.427,440.2578)"
           style="font-variant:normal;font-weight:normal;font-size:9.43037px;font-family:Lato;-inkscape-font-specification:Lato-Regular;writing-mode:lr-tb;fill:#2e313e;fill-opacity:1;fill-rule:nonzero;stroke:none"
           id="text80"><tspan
             x="0 4.4980335 9.8450537 13.0843 18.063536 25.820377 28.234552 30.497841 35.783485 39.866837 45.124142"
             y="0"
             sodipodi:role="line"
             id="tspan78">Lorem ipsum</tspan></text>
      </g>
      <path
         d="m 6047.24,4425.04 c 0,-15.99 -12.96,-28.95 -28.94,-28.95 -15.99,0 -28.95,12.96 -28.95,28.95 0,15.98 12.96,28.94 28.95,28.94 15.98,0 28.94,-12.96 28.94,-28.94"
         style="fill:#2e313e;fill-opacity:1;fill-rule:nonzero;stroke:none"
         id="path82" />
      <path
         d="m 6061.46,4352.93 c 0,23.84 -19.32,43.16 -43.16,43.16 -23.84,0 -43.17,-19.32 -43.17,-43.16 h 86.33"
         style="fill:#2e313e;fill-opacity:1;fill-rule:nonzero;stroke:none"
         id="path84" />
      <g
         id="g86"
         transform="scale(10)">
        <text
           xml:space="preserve"
           transform="matrix(1,0,0,-1,620.541,418.8)"
           style="font-variant:normal;font-weight:900;font-size:21.326px;font-family:Lato;-inkscape-font-specification:Lato-Black;writing-mode:lr-tb;fill:#2e313e;fill-opacity:1;fill-rule:nonzero;stroke:none"
           id="text90"><tspan
             x="0 12.36908 17.48732 29.8564 42.225479"
             y="0"
             sodipodi:role="line"
             id="tspan88">7,896</tspan></text>
      </g>
      <path
         d="M 3056.43,4497.75 V 4188"
         style="fill:none;stroke:#342821;stroke-width:10;stroke-linecap:butt;stroke-linejoin:miter;stroke-miterlimit:10;stroke-dasharray:none;stroke-opacity:1"
         id="path92" />
      <path
         d="M 4394.24,4497.75 V 4188"
         style="fill:none;stroke:#342821;stroke-width:10;stroke-linecap:butt;stroke-linejoin:miter;stroke-miterlimit:10;stroke-dasharray:none;stroke-opacity:1"
         id="path94" />
      <path
         d="M 5732.07,4497.75 V 4188"
         style="fill:none;stroke:#342821;stroke-width:10;stroke-linecap:butt;stroke-linejoin:miter;stroke-miterlimit:10;stroke-dasharray:none;stroke-opacity:1"
         id="path96" />
      <g
         id="g98"
         transform="scale(10)">
        <text
           xml:space="preserve"
           transform="matrix(1,0,0,-1,439.425,254.369)"
           style="font-variant:normal;font-weight:500;font-size:7px;font-family:Lato;-inkscape-font-specification:Lato-Medium;writing-mode:lr-tb;fill:#2e313e;fill-opacity:1;fill-rule:nonzero;stroke:none"
           id="text108"><tspan
             x="0 3.3706253 7.3536253 9.7857428 13.492795 19.277969 21.045534 22.750635 26.68812 29.729147 33.642147 39.428299 41.195862 45.12986 49.112862 50.785862 54.768276 57.18721 58.954773 61.99585 63.700951 66.234955 68.002518 71.498589 77.284691 80.962936 83.496941 85.099937 86.8675 90.154129 94.137131 98.053642 101.09516 104.80172 108.15134 110.66454 114.34327 116.87727 120.79027 124.49683 126.91528 128.68285 132.17941 136.1134 137.81802 141.75551 143.46011 146.50163 149.85124 151.55586 155.47238 159.12637 160.89394 164.60051 166.2735 167.97812 170.51212 172.11511"
             y="0"
             sodipodi:role="line"
             id="tspan100">Lorem ipsum dolor sit amet, consectetuer adipiscing elit, </tspan><tspan
             x="0 3.0380001 6.7410002 10.675 12.439 16.372999 18.073999 21.566999 27.369898 29.133898 33.046898 37.0299 40.942898 44.8559 50.653084 56.351345 59.809376 61.576939 65.493454 67.198067 71.132065 75.048584 76.816147 80.522713 84.435715 86.140327 89.181839 94.967506 98.9505 102.88451 104.65207 109.01307 112.92958 116.2792 117.98381 121.91781 125.83081 129.6985 132.2325 134.00006 137.91306 140.44707 142.21463 143.88763 147.38419 151.36719 153.7993 157.50587 161.1846 163.71861"
             y="8.3999996"
             sodipodi:role="line"
             id="tspan102">sed diam nonummy nibh euismod !ncidunt ut laoreet </tspan><tspan
             x="0 3.934 7.9169998 9.5900002 13.573 16.005068 19.708069 21.472069 27.264811 30.757811 34.411812 38.32481 41.81781 43.58181 47.07481 48.74781 50.448811 54.401154 58.314152 61.807152 67.596085 69.360085 73.063087 75.578896 79.030052 81.564049 83.163643 86.694885 90.677887 92.350883 96.263885 98.79789 102.73537 106.18652 108.72053 110.37253 112.14009 117.22604 119.76004 121.38406 126.91042 128.61504 131.65656 133.36116 135.12872 138.8353 142.75182 144.45642 150.24208 152.00964 155.50621 159.44022"
             y="16.799999"
             sodipodi:role="line"
             id="tspan104">dolore magna aliquam erat volutpat. Ut wisi enim ad </tspan><tspan
             x="0 5.7856622 7.4902754 11.406791 13.111404 18.897066 20.496662 24.027905 27.734468 31.650986 33.355598 36.852161 42.637775 44.240776 46.008339 49.938953 53.851955 55.556568 58.598034 60.365646 64.282112 68.265114 71.306633 73.84063 76.406044 80.319046 84.253044 86.020615 89.678345 93.048973 96.755539 99.187653 102.53727 104.24188 106.00945 108.54345 111.58496 115.49796 118.53948 122.03604 123.70905 125.41366 129.34431 133.25732 134.96193 138.89941"
             y="25.200001"
             sodipodi:role="line"
             id="tspan106">minim veniam, quis nostrud exerci tsusaliquip.</tspan></text>
      </g>
      <path
         d="M 4059.44,781.34 H 1747.29 V 2733.28 H 4059.44 V 781.34"
         style="fill:#ffffff;fill-opacity:1;fill-rule:nonzero;stroke:none"
         id="path110" />
      <g
         id="g112"
         transform="scale(10)">
        <text
           xml:space="preserve"
           transform="matrix(1,0,0,-1,186.115,236.968)"
           style="font-variant:normal;font-weight:500;font-size:7px;font-family:Lato;-inkscape-font-specification:Lato-Medium;writing-mode:lr-tb;fill:#2e313e;fill-opacity:1;fill-rule:nonzero;stroke:none"
           id="text140"><tspan
             x="0 3.3706007 7.353601 9.786231 13.49227 19.278397 21.045986 22.750086 26.687595 29.729599 33.642597 39.42775 41.195335 45.129898 49.112312 50.785313 54.768314 57.186268 58.953857 61.995861 63.699963 66.233963 68.001549 71.498627 77.283775 80.962486 83.496483 85.099487 86.867073 90.153702 94.136703 98.053192 101.0947 104.80125 108.15086 110.66403 114.34274 116.87674 120.78974 124.49628 126.91473 128.68231 132.17891 136.1129 137.81749 141.755 143.45959 146.50111 149.85072 151.55531 155.47183 159.12582 160.89342 164.59996 166.27295 167.97754 170.51155 172.11455 173.88213 176.92413 180.63019 184.56419 186.3318 190.26581 191.96991 195.466 201.25116"
             y="0"
             sodipodi:role="line"
             id="tspan114">Lorem ipsum dolor sit amet, consectetuer adipiscing elit, sed diam </tspan><tspan
             x="0 3.9130001 7.8959999 11.809 15.722 21.504 27.21327 30.67127 32.438858 36.355373 38.059963 41.993965 45.91048 47.67807 51.384609 55.297607 57.002197 60.043713 65.829353 69.812347 73.746353 75.513962 79.874962 83.791458 87.141068 88.845657 92.779655 96.692657 100.56037 103.09437 104.86196 108.77496 111.30896 113.07655 114.74955 118.24614 122.22913 124.66125 128.3678 132.04649 134.58051 136.34808 140.28209 144.26509 145.9381 149.9211 152.3537 156.06024 157.82782 163.61346 167.11003 170.76402 174.68005 178.17615 179.94374 183.43982 185.11282 186.81693 190.74759 194.66058 198.15668 203.94183"
             y="8.3999996"
             sodipodi:role="line"
             id="tspan116">nonummy nibh euismod !ncidunt ut laoreet dolore magna aliquam </tspan><tspan
             x="0 3.7065401 6.2158179 9.6669846 12.200984 13.801081 17.332335 21.315334 22.988335 26.901335 29.435335 33.372845 36.824024 39.358021 41.010021 42.777611 47.863052 50.397053 52.021088 57.547455 59.252045 62.29356 63.99815 65.765739 69.472275 73.388794 75.093384 80.879021 82.646606 86.143196 90.077194 91.844788 97.630424 99.335014 103.2515 104.95609 110.74173 112.34184 115.87309 119.57962 123.49614 125.20073 128.69731 134.48296 136.08595 137.85355 141.78421 145.6972 147.40179 150.44331 152.21089 156.12741 160.11041 163.15193 165.68593 168.25134 172.16435 176.09834 177.86594 181.52316 184.89426 188.60028 191.03291 194.38252 196.08662"
             y="16.799999"
             sodipodi:role="line"
             id="tspan118">erat volutpat. Ut wisi enim ad minim veniam, quis nostrud exerci </tspan><tspan
             x="0 2.5339999 5.9851665 10.346167 14.329166 18.24567 20.013258 23.926258 25.599258 27.272259 30.768848 36.554485 39.84111 43.824112 46.38953 50.327038 54.033554 56.452023 58.219612 61.261105 65.174103 68.215591 71.565231 73.269821 77.207329 78.911919 81.445915 83.213509 84.886505 88.869507 92.803505 96.786507 99.351929 103.71293 106.75444 108.52203 112.43855 114.14314 117.18465 118.85765 120.62524 124.53824 127.07224 128.83983 132.33641 134.00941 135.714 139.64467 143.55766 145.26225 149.19977 150.96735 154.62506 158.15306 159.92065 163.6272 167.12378 168.89137 172.17799 176.161 181.94615 187.73129 191.71371 195.64771 199.63013"
             y="25.200001"
             sodipodi:role="line"
             id="tspan120">ta!on ullamcorper suscipit lobor!s nisl ut aliquip ex ea commodo </tspan><tspan
             x="0 3.2866249 7.2696252 11.186129 14.227619 17.93416 21.864822 25.777822 29.228975 31.762976 33.414974 35.182564 40.45015 44.363148 46.067738 49.109253 50.876842 54.373428 58.28643 60.799606 64.506142 70.291756 71.891403 75.422646 79.129158 80.802162 82.569748 86.276291 90.189293 95.97493 97.742516 99.447105 102.01252 103.71711 107.63011 110.06271 113.76926 115.53685 119.47085 123.45385 125.12685 129.10985 131.52832 133.2959 135.00049 138.91699 140.6846 144.60109 148.30763 152.22415 156.15814 158.59026 162.2968 164.86221 166.5668 169.10081 170.86839 172.57298 176.48999"
             y="33.598831"
             sodipodi:role="line"
             id="tspan122">consequat. Duis autem vel eum iriure dolor in hendrerit in </tspan><tspan
             x="0 3.6329999 7.546 9.2189999 13.16 17.073 19.607 23.055079 25.568253 29.274794 30.874413 34.405655 38.112194 39.785194 41.489784 44.023785 45.791374 49.497913 52.539406 55.580921 59.28746 61.05505 66.840691 70.823685 72.496689 76.203224 79.244743 83.605743 87.312286 89.079872 92.366982 96.349983 100.26648 103.30799 107.01453 110.94519 114.85819 118.30937 120.84338 122.44637 124.04599 127.57723 131.28378 132.95677 134.72437 136.42896 138.10196 139.77495 143.68796 149.47359 151.24118 155.17519 159.15817 160.83118 164.81418 167.24678 170.95332 172.72092 176.42697 180.33997"
             y="42"
             sodipodi:role="line"
             id="tspan124">vulputate velit esse moles!e consequat, vel illum dolore eu </tspan><tspan
             x="0 3.3706007 7.353601 9.786231 13.49227 19.278397 21.045986 22.750086 26.687595 29.729599 33.642597 39.42775 41.195335 45.129898 49.112312 50.785313 54.768314 57.186268 58.953857 61.995861 63.699963 66.233963 68.001549 71.498627 77.283775 80.962486 83.496483 85.099487 86.867073 90.153702 94.136703 98.053192 101.0947 102.8623 106.56883 109.91845 112.43163 116.11033 118.64433 122.55733 126.26387 128.68231 130.44991 133.9465 137.88049 139.58508 143.5226 145.22719 148.26869 151.61832 153.32291 157.23941 160.89342 162.66101 166.36754 168.04054 169.74513 172.27913 173.88213 175.64972 178.69075 182.3968 186.3308 188.09839 192.03239 193.7365 197.23259 203.01775"
             y="67.199997"
             sodipodi:role="line"
             id="tspan126">Lorem ipsum dolor sit amet, cons ectetuer adipiscing elit, sed diam </tspan><tspan
             x="0 3.9130001 7.8959999 11.809 15.722 21.504 27.21327 30.67127 32.438858 36.355373 38.059963 41.993965 45.91048 47.67807 51.384609 55.297607 57.002197 60.043713 65.829353 69.812347 73.746353 75.513962 79.874962 83.791458 87.141068 88.845657 92.779655 96.692657 100.56037 103.09437 104.86196 108.77496 111.30896 113.07655 114.74955 118.24614 122.22913 124.66125 128.3678 132.04649 134.58051 136.34808 140.28209 144.26509 145.9381 149.9211 152.3537 156.06024 157.82782 163.61346 167.11003 170.76402 174.68005 178.17615 179.94374 183.43982 185.11282 186.81693 190.74759 194.66058 198.15668 203.94183"
             y="75.598831"
             sodipodi:role="line"
             id="tspan128">nonummy nibh euismod !ncidunt ut laoreet dolore magna aliquam </tspan><tspan
             x="0 3.7065401 6.2158179 9.6669846 12.200984 13.801081 17.332335 21.315334 22.988335 26.901335 29.435335 33.372845 36.824024 39.358021 41.010021 42.777611 47.863052 50.397053 52.021088 57.547455 59.252045 62.29356 63.99815 65.765739 69.472275 73.388794 75.093384 80.879021 82.646606 86.143196 90.077194 91.844788 97.630424 99.335014 103.2515 104.95609 110.74173 112.34184 115.87309 119.57962 123.49614 125.20073 128.69731 134.48296 136.08595 137.85355 141.78421 145.6972 147.40179 150.44331 152.21089 156.12741 160.11041 163.15193 165.68593 168.25134 172.16435 176.09834"
             y="84"
             sodipodi:role="line"
             id="tspan130">erat volutpat. Ut wisi enim ad minim veniam, quis nostrud </tspan><tspan
             x="0 3.3706007 7.353601 9.786231 13.49227 19.278397 21.045986 22.750086 26.687595 29.729599 33.642597 39.42775 41.195335 45.129898 49.112312 50.785313 54.768314 57.186268 58.953857 61.995861 63.699963 66.233963 68.001549 71.498627 77.283775 80.962486 83.496483 85.099487 86.867073 90.153702 94.136703 98.053192 101.0947 104.80125 108.15086 110.66403 114.34274 116.87674 120.78974 124.49628 126.91473 128.68231 132.17891 136.1129 137.81749 141.755 143.45959 146.50111 149.85072 151.55531 155.47183 159.12582 160.89342 164.59996 166.27295 167.97754 170.51155 172.11455 173.88213 176.92413 180.63019 184.56419 186.3318 190.26581 191.96991 195.466 201.25116"
             y="109.2"
             sodipodi:role="line"
             id="tspan132">Lorem ipsum dolor sit amet, consectetuer adipiscing elit, sed diam </tspan><tspan
             x="0 3.9130001 7.8959999 11.809 15.722 21.504 27.21327 30.67127 32.438858 36.355373 38.059963 41.993965 45.91048 47.67807 51.384609 55.297607 57.002197 60.043713 65.829353 69.812347 73.746353 75.513962 79.874962 83.791458 87.141068 88.845657 92.779655 96.692657 100.56037 103.09437 104.86196 108.77496 111.30896 113.07655 114.74955 118.24614 122.22913 124.66125 128.3678 132.04649 134.58051 136.34808 140.28209 144.26509 145.9381 149.9211 152.3537 156.06024 157.82782 163.61346 167.11003 170.76402 174.68005 178.17615 179.94374 183.43982 185.11282 186.81693 190.74759 194.66058 198.15668 203.94183"
             y="117.59883"
             sodipodi:role="line"
             id="tspan134">nonummy nibh euismod !ncidunt ut laoreet dolore magna aliquam </tspan><tspan
             x="0 3.7065401 6.2158179 9.6669846 12.200984 13.801081 17.332335 21.315334 22.988335 26.901335 29.435335 33.372845 36.824024 39.358021 41.010021 42.777611 47.863052 50.397053 52.021088 57.547455 59.252045 62.29356 63.99815 65.765739 69.472275 73.388794 75.093384 80.879021 82.646606 86.143196 90.077194 91.844788 97.630424 99.335014 103.2515 104.95609 110.74173 112.34184 115.87309 119.57962 123.49614 125.20073 128.69731 134.48296 136.08595 137.85355 141.78421 145.6972 147.40179 150.44331 152.21089 156.12741 160.11041 163.15193 165.68593 168.25134 172.16435 176.09834 177.86594 181.52316 184.89426 188.60028 191.03291 194.38252 196.08662"
             y="126"
             sodipodi:role="line"
             id="tspan136">erat volutpat. Ut wisi enim ad minim veniam, quis nostrud exerci </tspan><tspan
             x="0 2.5339999 5.9851665 10.346167 14.329166 18.24567 20.013258 23.926258 25.599258 27.272259 30.768848 36.554485 39.84111 43.824112 46.38953 50.327038 54.033554 56.452023 58.219612 61.261105 65.174103 68.215591 71.565231 73.269821 77.207329 78.911919 81.445915 83.213509 84.886505 88.869507 92.803505 96.786507 99.351929 103.71293 106.75444 108.52203 112.43855 114.14314 117.18465 118.85765 120.62524 124.53824 127.07224 128.83983 132.33641 134.00941 135.714 139.64467 143.55766 145.26225 149.19977 150.96735 154.62506 158.15306 159.92065 163.6272 167.12378"
             y="134.39999"
             sodipodi:role="line"
             id="tspan138">ta!on ullamcorper suscipit lobor!s nisl ut aliquip ex ea </tspan></text>
      </g>
      <g
         id="g142"
         transform="scale(10)">
        <text
           xml:space="preserve"
           transform="matrix(1,0,0,-1,186.115,254.398)"
           style="font-variant:normal;font-weight:900;font-size:10px;font-family:Lato;-inkscape-font-specification:Lato-Black;writing-mode:lr-tb;fill:#20b046;fill-opacity:1;fill-rule:nonzero;stroke:none"
           id="text146"><tspan
             x="0 6.3847661 14.529783 22.299784 27.839783 33.419369 39.974545 46.064545 51.794544 57.884544 65.374542 71.104546 77.679253"
             y="0"
             sodipodi:role="line"
             id="tspan144">CONSECTETUER </tspan></text>
      </g>
      <g
         id="g148"
         transform="scale(10)">
        <text
           xml:space="preserve"
           transform="matrix(1,0,0,-1,25.3336,280.643)"
           style="font-variant:normal;font-weight:bold;font-size:5.87507px;font-family:Lato;-inkscape-font-specification:Lato-Bold;writing-mode:lr-tb;fill:#89827e;fill-opacity:1;fill-rule:nonzero;stroke:none"
           id="text156"><tspan
             x="0 4.4650531 9.2121096 12.117188 16.864244 20.641914 22.069557 25.292221 27.03392 30.380112 31.61058 35.691151 41.243092 44.621258"
             y="0"
             sodipodi:role="line"
             id="tspan150">DOLOR SIT AMET</tspan><tspan
             x="0 4.4650531 9.2121096 12.117188 16.864244 20.641914 22.069557 25.292221 27.03392 30.380112 31.61058 35.691151 41.243092 44.621258"
             y="15.1391"
             sodipodi:role="line"
             id="tspan152">DOLOR SIT AMET</tspan><tspan
             x="0 4.4650531 9.2121096 12.117188 16.864244 20.641914 22.069557 25.292221 27.03392 30.380112 31.61058 35.691151 41.243092 44.621258"
             y="30.277"
             sodipodi:role="line"
             id="tspan154">DOLOR SIT AMET</tspan></text>
      </g>
      <g
         id="g158"
         transform="scale(10)">
        <text
           xml:space="preserve"
           transform="matrix(1,0,0,-1,25.3219,332.673)"
           style="font-variant:normal;font-weight:bold;font-size:7px;font-family:Lato;-inkscape-font-specification:Lato-Bold;writing-mode:lr-tb;fill:#20b046;fill-opacity:1;fill-rule:nonzero;stroke:none"
           id="text162"><tspan
             x="0 5.1660175 10.02735 13.866714 19.260262 23.869644 29.372086 34.23341 38.734413"
             y="0"
             sodipodi:role="line"
             id="tspan160">DASHBOARD</tspan></text>
      </g>
      <g
         id="g164"
         transform="scale(10)">
        <text
           xml:space="preserve"
           transform="matrix(1,0,0,-1,25.3219,300.34)"
           style="font-variant:normal;font-weight:bold;font-size:7px;font-family:Lato;-inkscape-font-specification:Lato-Bold;writing-mode:lr-tb;fill:#ffffff;fill-opacity:1;fill-rule:nonzero;stroke:none"
           id="text168"><tspan
             x="0 5.3232379 10.979238 14.43725 20.09325 24.59425 26.29525 30.134613 32.209812"
             y="0"
             sodipodi:role="line"
             id="tspan166">DOLOR SIT</tspan></text>
      </g>
      <path
         d="m 748.395,3413.83 -11.29,-11.29 44.586,-44.59 -44.586,-44.58 11.29,-11.29 55.875,55.87 -55.875,55.88"
         style="fill:#20b046;fill-opacity:1;fill-rule:nonzero;stroke:none"
         id="path170" />
      <path
         d="m 823.789,3413.83 -11.289,-11.29 44.586,-44.59 -44.586,-44.58 11.289,-11.29 55.875,55.87 -55.875,55.88"
         style="fill:#20b046;fill-opacity:1;fill-rule:nonzero;stroke:none"
         id="path172" />
      <path
         d="m 899.188,3413.83 -11.286,-11.29 44.586,-44.59 -44.586,-44.58 11.286,-11.29 55.871,55.87 -55.871,55.88"
         style="fill:#20b046;fill-opacity:1;fill-rule:nonzero;stroke:none"
         id="path174" />
      <path
         d="m 1306.05,3057.96 -38.01,38.01 -16.34,-16.35 54.35,-54.35 54.36,54.35 -16.35,16.35 -38.01,-38.01"
         style="fill:#20b046;fill-opacity:1;fill-rule:nonzero;stroke:none"
         id="path176" />
      <g
         id="g178"
         transform="scale(10)">
        <text
           xml:space="preserve"
           transform="matrix(1,0,0,-1,25.3219,212.398)"
           style="font-variant:normal;font-weight:bold;font-size:7px;font-family:Lato;-inkscape-font-specification:Lato-Bold;writing-mode:lr-tb;fill:#ffffff;fill-opacity:1;fill-rule:nonzero;stroke:none"
           id="text182"><tspan
             x="0 4.5219707 10.177971 15.571041 19.410883 23.327383 27.957752 32.157753 36.182755 40.382751 45.580017 49.605019 54.106018"
             y="0"
             sodipodi:role="line"
             id="tspan180">CONSECTETUER </tspan></text>
      </g>
      <path
         d="m 1308.71,2148.56 -38.01,-38.01 16.35,-16.34 54.35,54.35 -54.35,54.36 -16.35,-16.35 38.01,-38.01"
         style="fill:#20b046;fill-opacity:1;fill-rule:nonzero;stroke:none"
         id="path184" />
      <g
         id="g186"
         transform="scale(10)">
        <text
           xml:space="preserve"
           transform="matrix(1,0,0,-1,25.3328,179.064)"
           style="font-variant:normal;font-weight:bold;font-size:7px;font-family:Lato;-inkscape-font-specification:Lato-Bold;writing-mode:lr-tb;fill:#ffffff;fill-opacity:1;fill-rule:nonzero;stroke:none"
           id="text190"><tspan
             x="0 4.8613324 10.185059 12.26026 16.59326 18.66894 22.508301 27.13867 29.214355 34.607422"
             y="0"
             sodipodi:role="line"
             id="tspan188">ADIPISCING</tspan></text>
      </g>
      <path
         d="m 1308.71,1782.6 -38.01,-38 16.35,-16.35 54.35,54.35 -54.35,54.36 -16.35,-16.35 38.01,-38.01"
         style="fill:#20b046;fill-opacity:1;fill-rule:nonzero;stroke:none"
         id="path192" />
      <g
         id="g194"
         transform="scale(10)">
        <text
           xml:space="preserve"
           transform="matrix(1,0,0,-1,25.3219,146.001)"
           style="font-variant:normal;font-weight:bold;font-size:7px;font-family:Lato;-inkscape-font-specification:Lato-Bold;writing-mode:lr-tb;fill:#ffffff;fill-opacity:1;fill-rule:nonzero;stroke:none"
           id="text198"><tspan
             x="0 5.323729 7.3989277 12.26026 18.875259 20.57626 25.969812 31.625813 37.01936 42.217106 48.832108 55.447105 59.696621"
             y="0"
             sodipodi:role="line"
             id="tspan196">DIAM NONUMMY </tspan></text>
      </g>
      <path
         d="m 1308.71,1495.94 -38.01,-38 16.35,-16.35 54.35,54.35 -54.35,54.36 -16.35,-16.35 38.01,-38.01"
         style="fill:#20b046;fill-opacity:1;fill-rule:nonzero;stroke:none"
         id="path200" />
      <g
         id="g202"
         transform="scale(10)">
        <text
           xml:space="preserve"
           transform="matrix(1,0,0,-1,25.3219,112.398)"
           style="font-variant:normal;font-weight:bold;font-size:7px;font-family:Lato;-inkscape-font-specification:Lato-Bold;writing-mode:lr-tb;fill:#ffffff;fill-opacity:1;fill-rule:nonzero;stroke:none"
           id="text206"><tspan
             x="0 5.393549 11.049549 16.443098 21.640369 28.255369 34.870369 39.119389 40.820389 46.213936 48.289139 52.898521"
             y="0"
             sodipodi:role="line"
             id="tspan204">NONUMMY NIBH</tspan></text>
      </g>
      <path
         d="m 1308.71,1123.98 -38.01,-38.01 16.35,-16.34 54.35,54.35 -54.35,54.36 -16.35,-16.35 38.01,-38.01"
         style="fill:#20b046;fill-opacity:1;fill-rule:nonzero;stroke:none"
         id="path208" />
      <path
         d="M 253.219,2322.2 H 1360.41"
         style="fill:none;stroke:#20b046;stroke-width:10;stroke-linecap:butt;stroke-linejoin:miter;stroke-miterlimit:10;stroke-dasharray:none;stroke-opacity:1"
         id="path210" />
      <path
         d="M 253.219,1990.57 H 1360.41"
         style="fill:none;stroke:#20b046;stroke-width:10;stroke-linecap:butt;stroke-linejoin:miter;stroke-miterlimit:10;stroke-dasharray:none;stroke-opacity:1"
         id="path212" />
      <path
         d="M 253.219,1658.94 H 1360.41"
         style="fill:none;stroke:#20b046;stroke-width:10;stroke-linecap:butt;stroke-linejoin:miter;stroke-miterlimit:10;stroke-dasharray:none;stroke-opacity:1"
         id="path214" />
      <path
         d="M 253.219,1327.32 H 1360.41"
         style="fill:none;stroke:#20b046;stroke-width:10;stroke-linecap:butt;stroke-linejoin:miter;stroke-miterlimit:10;stroke-dasharray:none;stroke-opacity:1"
         id="path216" />
      <path
         d="m 1191.09,4335 c 0,-185.01 -149.99,-335 -335,-335 -185.02,0 -335,149.99 -335,335 0,185.02 149.98,335 335,335 185.01,0 335,-149.98 335,-335"
         style="fill:#20b046;fill-opacity:1;fill-rule:nonzero;stroke:none"
         id="path218" />
      <g
         id="g220"
         transform="scale(10)">
        <text
           xml:space="preserve"
           transform="matrix(1,0,0,-1,39.7309,385.077)"
           style="font-variant:normal;font-weight:900;font-size:13px;font-family:Lato;-inkscape-font-specification:Lato-Black;writing-mode:lr-tb;fill:#ffffff;fill-opacity:1;fill-rule:nonzero;stroke:none"
           id="text224"><tspan
             x="0 6.5908208 17.179718 25.727083 33.176083 45.656082 48.659084 52.701565 60.969566 68.171562 77.908562"
             y="0"
             sodipodi:role="line"
             id="tspan222">LOREM IPSUM</tspan></text>
        <text
           xml:space="preserve"
           transform="matrix(1,0,0,-1,62.5622,373.0739)"
           style="font-variant:normal;font-weight:bold;font-size:5.87507px;font-family:Lato;-inkscape-font-specification:Lato-Bold;writing-mode:lr-tb;fill:#ffffff;fill-opacity:1;fill-rule:nonzero;stroke:none"
           id="text228"><tspan
             x="0 4.4650531 9.2121096 12.117186 16.864243 20.641912 22.069553 25.292217 27.033918 30.380108 31.610577 35.691147 41.243088 44.621254"
             y="0"
             sodipodi:role="line"
             id="tspan226">DOLOR SIT AMET</tspan></text>
      </g>
      <path
         d="m 972.266,4429.5 c 0,-64.16 -52.016,-116.18 -116.176,-116.18 -64.164,0 -116.18,52.02 -116.18,116.18 0,64.16 52.016,116.18 116.18,116.18 64.16,0 116.176,-52.02 116.176,-116.18"
         style="fill:#ffffff;fill-opacity:1;fill-rule:nonzero;stroke:none"
         id="path230" />
      <path
         d="m 1029.34,4140.07 c 0,95.69 -77.57,173.25 -173.25,173.25 -95.684,0 -173.25,-77.56 -173.25,-173.25 h 346.5"
         style="fill:#ffffff;fill-opacity:1;fill-rule:nonzero;stroke:none"
         id="path232" />
      <path
         d="M 4059.44,199.531 H 1747.29 V 658.949 H 4059.44 V 199.531"
         style="fill:#ffffff;fill-opacity:1;fill-rule:nonzero;stroke:none"
         id="path234" />
      <path
         d="m 2579.79,309.051 251.58,214.578 306.43,-107.289 263.18,139.781 284.31,-183.09 205.97,183.09 V 309.051 H 2579.79"
         style="fill:#20b046;fill-opacity:1;fill-rule:nonzero;stroke:none"
         id="path236" />
      <g
         id="g238"
         transform="scale(10)">
        <text
           xml:space="preserve"
           transform="matrix(1,0,0,-1,186.058,52.3629)"
           style="font-variant:normal;font-weight:normal;font-size:9.43037px;font-family:Lato;-inkscape-font-specification:Lato-Regular;writing-mode:lr-tb;fill:#2e313e;fill-opacity:1;fill-rule:nonzero;stroke:none"
           id="text242"><tspan
             x="0 4.4980459 9.8450661 13.084336 18.063572 25.820414 28.234589 30.497877 35.783524 39.866875 45.124203"
             y="0"
             sodipodi:role="line"
             id="tspan240">Lorem ipsum</tspan></text>
        <text
           xml:space="preserve"
           transform="matrix(1,0,0,-1,186.17206,30.9051)"
           style="font-variant:normal;font-weight:900;font-size:21.326px;font-family:Lato;-inkscape-font-specification:Lato-Black;writing-mode:lr-tb;fill:#2e313e;fill-opacity:1;fill-rule:nonzero;stroke:none"
           id="text246"><tspan
             x="0 12.36908 24.738159 29.855839 42.224918 54.593998"
             y="0"
             sodipodi:role="line"
             id="tspan244">20,897</tspan></text>
      </g>
      <path
         d="M 6304.89,199.531 H 4160.92 V 658.949 H 6304.89 V 199.531"
         style="fill:#ffffff;fill-opacity:1;fill-rule:nonzero;stroke:none"
         id="path248" />
      <path
         d="M 6203.05,309.051 5969.77,523.629 5685.63,416.34 5441.6,556.121 l -263.63,-183.09 -67.41,103.09 -123.58,-167.07 h 1216.07"
         style="fill:#2e313e;fill-opacity:1;fill-rule:nonzero;stroke:none"
         id="path250" />
      <g
         id="g252"
         transform="scale(10)">
        <text
           xml:space="preserve"
           transform="matrix(1,0,0,-1,427.421,52.3629)"
           style="font-variant:normal;font-weight:normal;font-size:9.43037px;font-family:Lato;-inkscape-font-specification:Lato-Regular;writing-mode:lr-tb;fill:#2e313e;fill-opacity:1;fill-rule:nonzero;stroke:none"
           id="text256"><tspan
             x="0 4.4980335 9.8450537 13.0843 18.063536 25.820377 28.234552 30.497841 35.783485 39.866837 45.124142"
             y="0"
             sodipodi:role="line"
             id="tspan254">Lorem ipsum</tspan></text>
        <text
           xml:space="preserve"
           transform="matrix(1,0,0,-1,427.53506,30.9051)"
           style="font-variant:normal;font-weight:900;font-size:21.326px;font-family:Lato;-inkscape-font-specification:Lato-Black;writing-mode:lr-tb;fill:#2e313e;fill-opacity:1;fill-rule:nonzero;stroke:none"
           id="text260"><tspan
             x="0 12.36908 24.738159 29.855814 42.224895 54.593975"
             y="0"
             sodipodi:role="line"
             id="tspan258">20,897</tspan></text>
      </g>
      <path
         d="M 2861.68,2855.68 H 1747.29 V 3970.07 H 2861.68 V 2855.68"
         style="fill:#ffffff;fill-opacity:1;fill-rule:nonzero;stroke:none"
         id="path262" />
      <path
         d="m 2311.2,2991 h -0.18 c -20.28,0 -40.65,1.58 -60.55,4.7 l 18.88,120.64 c 13.67,-2.14 27.69,-3.22 41.67,-3.22 l 3.39,-0.1 -3.21,-57.79 V 2991"
         style="fill:#20b046;fill-opacity:1;fill-rule:nonzero;stroke:none"
         id="path264" />
      <path
         d="m 2372,2995.77 -19.02,120.62 c 13.76,2.17 27.44,5.45 40.67,9.74 l 37.75,-116.12 c -19.32,-6.28 -39.31,-11.07 -59.4,-14.24"
         style="fill:#20b046;fill-opacity:1;fill-rule:nonzero;stroke:none"
         id="path266" />
      <path
         d="m 2191.05,3009.87 c -19.33,6.26 -38.33,14.13 -56.47,23.37 l 55.44,108.8 c 12.42,-6.33 25.43,-11.71 38.66,-16 l -37.63,-116.17"
         style="fill:#20b046;fill-opacity:1;fill-rule:nonzero;stroke:none"
         id="path268" />
      <path
         d="m 2487.82,3033.42 -55.55,108.75 c 12.38,6.33 24.38,13.7 35.66,21.91 l 71.88,-98.72 c -16.44,-11.96 -33.93,-22.71 -51.99,-31.94"
         style="fill:#20b046;fill-opacity:1;fill-rule:nonzero;stroke:none"
         id="path270" />
      <path
         d="m 2082.53,3065.15 c -16.42,11.93 -32.03,25.25 -46.39,39.6 l 86.29,86.4 c 9.88,-9.86 20.6,-19.02 31.89,-27.21 l -71.79,-98.79"
         style="fill:#20b046;fill-opacity:1;fill-rule:nonzero;stroke:none"
         id="path272" />
      <path
         d="m 2586.14,3104.99 -86.35,86.34 c 9.86,9.87 19.03,20.59 27.23,31.87 l 98.75,-71.84 c -11.94,-16.41 -25.27,-32.01 -39.63,-46.37"
         style="fill:#2e313e;fill-opacity:1;fill-rule:nonzero;stroke:none"
         id="path274" />
      <path
         d="m 1996.49,3151.07 c -11.97,16.41 -22.73,33.89 -31.97,51.95 l 108.71,55.63 c 6.34,-12.38 13.71,-24.38 21.93,-35.65 l -98.67,-71.93"
         style="fill:#20b046;fill-opacity:1;fill-rule:nonzero;stroke:none"
         id="path276" />
      <path
         d="m 2657.71,3203.39 -108.77,55.5 c 6.33,12.41 11.72,25.41 16.02,38.66 l 116.14,-37.7 c -6.27,-19.35 -14.15,-38.34 -23.39,-56.46"
         style="fill:#2e313e;fill-opacity:1;fill-rule:nonzero;stroke:none"
         id="path278" />
      <path
         d="m 1941.07,3259.44 c -6.29,19.31 -11.09,39.29 -14.27,59.39 l 120.61,19.09 c 2.18,-13.77 5.46,-27.44 9.77,-40.66 l -116.11,-37.82"
         style="fill:#20b046;fill-opacity:1;fill-rule:nonzero;stroke:none"
         id="path280" />
      <path
         d="m 2695.31,3319.26 -120.63,18.94 c 2.15,13.73 3.25,27.8 3.25,41.82 v 0.71 h 122.11 v -0.71 c 0,-20.34 -1.59,-40.78 -4.73,-60.76"
         style="fill:#2e313e;fill-opacity:1;fill-rule:nonzero;stroke:none"
         id="path282" />
      <path
         d="m 2044.11,3379.15 -37.79,0.54 -84.32,-0.03 v 0.36 c 0,20.21 1.57,40.5 4.67,60.34 l 120.65,-18.81 c -2.12,-13.63 -3.2,-27.6 -3.2,-41.53 l -0.01,-0.87"
         style="fill:#20b046;fill-opacity:1;fill-rule:nonzero;stroke:none"
         id="path284" />
      <path
         d="m 2574.59,3422.41 c -2.19,13.76 -5.5,27.44 -9.81,40.65 l 116.06,37.94 c 6.31,-19.3 11.14,-39.28 14.34,-59.37 l -120.59,-19.22"
         style="fill:#2e313e;fill-opacity:1;fill-rule:nonzero;stroke:none"
         id="path286" />
      <path
         d="m 2057,3462.23 -116.19,37.56 c 6.25,19.34 14.1,38.35 23.34,56.49 l 108.83,-55.39 c -6.33,-12.42 -11.7,-25.43 -15.98,-38.66"
         style="fill:#20b046;fill-opacity:1;fill-rule:nonzero;stroke:none"
         id="path288" />
      <path
         d="m 2548.68,3501.66 c -6.35,12.37 -13.74,24.35 -21.97,35.62 l 98.6,72.04 c 11.99,-16.42 22.77,-33.89 32.02,-51.94 l -108.65,-55.72"
         style="fill:#2e313e;fill-opacity:1;fill-rule:nonzero;stroke:none"
         id="path290" />
      <path
         d="m 2094.85,3536.61 -98.82,71.73 c 11.91,16.42 25.22,32.03 39.56,46.41 l 86.47,-86.23 c -9.87,-9.9 -19.02,-20.63 -27.21,-31.91"
         style="fill:#20b046;fill-opacity:1;fill-rule:nonzero;stroke:none"
         id="path292" />
      <path
         d="m 2499.42,3569.08 c -9.9,9.87 -20.64,19.02 -31.93,27.2 l 71.69,98.86 c 16.41,-11.91 32.03,-25.21 46.42,-39.54 l -86.18,-86.52"
         style="fill:#20b046;fill-opacity:1;fill-rule:nonzero;stroke:none"
         id="path294" />
      <path
         d="m 2153.89,3595.8 -71.99,98.63 c 16.41,11.98 33.89,22.75 51.94,32 l 55.68,-108.68 c -12.38,-6.35 -24.37,-13.73 -35.63,-21.95"
         style="fill:#20b046;fill-opacity:1;fill-rule:nonzero;stroke:none"
         id="path296" />
      <path
         d="m 2431.76,3618.13 c -12.42,6.32 -25.43,11.69 -38.67,15.96 l 37.5,116.21 c 19.35,-6.24 38.36,-14.08 56.51,-23.31 l -55.34,-108.86"
         style="fill:#20b046;fill-opacity:1;fill-rule:nonzero;stroke:none"
         id="path298" />
      <path
         d="m 2228.13,3633.82 -37.89,116.09 c 19.32,6.3 39.3,11.11 59.39,14.3 l 19.14,-120.6 c -13.75,-2.18 -27.43,-5.48 -40.64,-9.79"
         style="fill:#20b046;fill-opacity:1;fill-rule:nonzero;stroke:none"
         id="path300" />
      <path
         d="m 2352.41,3643.75 c -13.58,2.11 -27.51,3.18 -41.39,3.18 h -0.57 l 0.03,122.11 h 0.54 c 20.14,0 40.37,-1.56 60.14,-4.63 l -18.75,-120.66"
         style="fill:#20b046;fill-opacity:1;fill-rule:nonzero;stroke:none"
         id="path302" />
      <g
         id="g304"
         transform="scale(10)">
        <text
           xml:space="preserve"
           transform="matrix(1,0,0,-1,216.227,330.058)"
           style="font-variant:normal;font-weight:900;font-size:16.1413px;font-family:Lato;-inkscape-font-specification:Lato-Heavy;writing-mode:lr-tb;fill:#2e313e;fill-opacity:1;fill-rule:nonzero;stroke:none"
           id="text308"><tspan
             x="0 9.3619537 18.723272"
             y="0"
             sodipodi:role="line"
             id="tspan306">420</tspan></text>
        <text
           xml:space="preserve"
           transform="matrix(1,0,0,-1,217.51723,346.0889)"
           style="font-variant:normal;font-weight:300;font-size:3.7439px;font-family:Montserrat;-inkscape-font-specification:Montserrat-Light;writing-mode:lr-tb;fill:#2e313e;fill-opacity:1;fill-rule:nonzero;stroke:none"
           id="text312"><tspan
             x="0 1.9355963 4.9793868 7.6862268 10.123506 13.571637 14.694807 15.788026 18.292696 20.580217 23.455534"
             y="0"
             sodipodi:role="line"
             id="tspan310">LOREM IPSUM</tspan></text>
      </g>
      <path
         d="m 4059.44,2855.68 h -1114.4 v 1114.39 h 1114.4 V 2855.68"
         style="fill:#ffffff;fill-opacity:1;fill-rule:nonzero;stroke:none"
         id="path314" />
      <path
         d="m 3502.42,2991 h -0.18 c -20.28,0 -40.65,1.58 -60.55,4.7 l 18.87,120.64 c 13.68,-2.14 27.7,-3.22 41.68,-3.22 l 3.39,-0.1 -3.21,-57.79 V 2991"
         style="fill:#20b046;fill-opacity:1;fill-rule:nonzero;stroke:none"
         id="path316" />
      <path
         d="m 3563.22,2995.77 -19.02,120.62 c 13.76,2.17 27.44,5.45 40.66,9.74 l 37.75,-116.12 c -19.32,-6.28 -39.3,-11.07 -59.39,-14.24"
         style="fill:#20b046;fill-opacity:1;fill-rule:nonzero;stroke:none"
         id="path318" />
      <path
         d="m 3382.27,3009.87 c -19.33,6.26 -38.34,14.13 -56.48,23.37 l 55.45,108.8 c 12.42,-6.33 25.43,-11.71 38.65,-16 l -37.62,-116.17"
         style="fill:#20b046;fill-opacity:1;fill-rule:nonzero;stroke:none"
         id="path320" />
      <path
         d="m 3679.04,3033.42 -55.56,108.75 c 12.39,6.33 24.39,13.7 35.67,21.91 l 71.87,-98.72 c -16.43,-11.96 -33.92,-22.71 -51.98,-31.94"
         style="fill:#20b046;fill-opacity:1;fill-rule:nonzero;stroke:none"
         id="path322" />
      <path
         d="m 3273.75,3065.15 c -16.42,11.93 -32.03,25.25 -46.4,39.6 l 86.3,86.4 c 9.88,-9.86 20.6,-19.02 31.88,-27.21 l -71.78,-98.79"
         style="fill:#2e313e;fill-opacity:1;fill-rule:nonzero;stroke:none"
         id="path324" />
      <path
         d="m 3777.36,3104.99 -86.36,86.34 c 9.87,9.87 19.04,20.59 27.24,31.87 l 98.75,-71.84 c -11.94,-16.41 -25.27,-32.01 -39.63,-46.37"
         style="fill:#20b046;fill-opacity:1;fill-rule:nonzero;stroke:none"
         id="path326" />
      <path
         d="m 3187.71,3151.07 c -11.98,16.41 -22.73,33.89 -31.97,51.95 l 108.7,55.63 c 6.34,-12.38 13.73,-24.38 21.94,-35.65 l -98.67,-71.93"
         style="fill:#2e313e;fill-opacity:1;fill-rule:nonzero;stroke:none"
         id="path328" />
      <path
         d="m 3848.92,3203.39 -108.76,55.5 c 6.33,12.41 11.72,25.41 16.01,38.66 l 116.15,-37.7 c -6.28,-19.35 -14.15,-38.34 -23.4,-56.46"
         style="fill:#20b046;fill-opacity:1;fill-rule:nonzero;stroke:none"
         id="path330" />
      <path
         d="m 3132.29,3259.44 c -6.29,19.31 -11.1,39.29 -14.28,59.39 l 120.61,19.09 c 2.19,-13.77 5.47,-27.44 9.77,-40.66 l -116.1,-37.82"
         style="fill:#2e313e;fill-opacity:1;fill-rule:nonzero;stroke:none"
         id="path332" />
      <path
         d="m 3886.53,3319.26 -120.64,18.94 c 2.16,13.73 3.26,27.8 3.26,41.82 v 0.71 h 122.11 v -0.71 c 0,-20.34 -1.6,-40.78 -4.73,-60.76"
         style="fill:#20b046;fill-opacity:1;fill-rule:nonzero;stroke:none"
         id="path334" />
      <path
         d="m 3235.33,3379.15 -37.79,0.54 -84.32,-0.03 v 0.36 c 0,20.21 1.57,40.5 4.66,60.34 l 120.66,-18.81 c -2.13,-13.63 -3.21,-27.6 -3.21,-41.53 v -0.87"
         style="fill:#2e313e;fill-opacity:1;fill-rule:nonzero;stroke:none"
         id="path336" />
      <path
         d="m 3765.81,3422.41 c -2.2,13.76 -5.5,27.44 -9.82,40.65 l 116.07,37.94 c 6.32,-19.3 11.14,-39.28 14.34,-59.37 l -120.59,-19.22"
         style="fill:#20b046;fill-opacity:1;fill-rule:nonzero;stroke:none"
         id="path338" />
      <path
         d="m 3248.22,3462.23 -116.19,37.56 c 6.25,19.34 14.1,38.35 23.34,56.49 l 108.83,-55.39 c -6.33,-12.42 -11.7,-25.43 -15.98,-38.66"
         style="fill:#2e313e;fill-opacity:1;fill-rule:nonzero;stroke:none"
         id="path340" />
      <path
         d="m 3739.89,3501.66 c -6.34,12.37 -13.73,24.35 -21.96,35.62 l 98.59,72.04 c 12,-16.42 22.77,-33.89 32.03,-51.94 l -108.66,-55.72"
         style="fill:#20b046;fill-opacity:1;fill-rule:nonzero;stroke:none"
         id="path342" />
      <path
         d="m 3286.07,3536.61 -98.83,71.73 c 11.92,16.42 25.23,32.03 39.57,46.41 l 86.46,-86.23 c -9.86,-9.9 -19.02,-20.63 -27.2,-31.91"
         style="fill:#2e313e;fill-opacity:1;fill-rule:nonzero;stroke:none"
         id="path344" />
      <path
         d="m 3690.64,3569.08 c -9.9,9.87 -20.64,19.02 -31.93,27.2 l 71.68,98.86 c 16.42,-11.91 32.04,-25.21 46.42,-39.54 l -86.17,-86.52"
         style="fill:#20b046;fill-opacity:1;fill-rule:nonzero;stroke:none"
         id="path346" />
      <path
         d="m 3345.1,3595.8 -71.99,98.63 c 16.42,11.98 33.9,22.75 51.95,32 l 55.68,-108.68 c -12.38,-6.35 -24.37,-13.73 -35.64,-21.95"
         style="fill:#2e313e;fill-opacity:1;fill-rule:nonzero;stroke:none"
         id="path348" />
      <path
         d="m 3622.98,3618.13 c -12.42,6.32 -25.43,11.69 -38.68,15.96 l 37.51,116.21 c 19.34,-6.24 38.36,-14.08 56.5,-23.31 l -55.33,-108.86"
         style="fill:#2e313e;fill-opacity:1;fill-rule:nonzero;stroke:none"
         id="path350" />
      <path
         d="m 3419.34,3633.82 -37.88,116.09 c 19.31,6.3 39.29,11.11 59.39,14.3 l 19.14,-120.6 c -13.76,-2.18 -27.43,-5.48 -40.65,-9.79"
         style="fill:#2e313e;fill-opacity:1;fill-rule:nonzero;stroke:none"
         id="path352" />
      <path
         d="m 3543.63,3643.75 c -13.58,2.11 -27.51,3.18 -41.39,3.18 h -0.58 l 0.05,122.11 h 0.53 c 20.13,0 40.37,-1.56 60.13,-4.63 l -18.74,-120.66"
         style="fill:#2e313e;fill-opacity:1;fill-rule:nonzero;stroke:none"
         id="path354" />
      <g
         id="g356"
         transform="scale(10)">
        <text
           xml:space="preserve"
           transform="matrix(1,0,0,-1,335.349,330.058)"
           style="font-variant:normal;font-weight:900;font-size:16.1413px;font-family:Lato;-inkscape-font-specification:Lato-Heavy;writing-mode:lr-tb;fill:#2e313e;fill-opacity:1;fill-rule:nonzero;stroke:none"
           id="text360"><tspan
             x="0 9.3619537 18.723272"
             y="0"
             sodipodi:role="line"
             id="tspan358">330</tspan></text>
        <text
           xml:space="preserve"
           transform="matrix(1,0,0,-1,336.63923,346.0889)"
           style="font-variant:normal;font-weight:900;font-size:3.7439px;font-family:Lato;-inkscape-font-specification:Lato-Heavy;writing-mode:lr-tb;fill:#2e313e;fill-opacity:1;fill-rule:nonzero;stroke:none"
           id="text364"><tspan
             x="0 1.8720649 4.9083676 7.3400145 9.4890127 13.051513 13.940185 15.074586 17.42201 19.4849 22.275936"
             y="0"
             sodipodi:role="line"
             id="tspan362">LOREM IPSUM</tspan></text>
        <text
           xml:space="preserve"
           transform="matrix(1,0,0,-1,423.55603,316.3217)"
           style="font-variant:normal;font-weight:900;font-size:16.1413px;font-family:Lato;-inkscape-font-specification:Lato-Heavy;writing-mode:lr-tb;fill:#2e313e;fill-opacity:1;fill-rule:nonzero;stroke:none"
           id="text368"><tspan
             x="0 9.3613195 18.723272 22.564072 31.926027"
             y="0"
             sodipodi:role="line"
             id="tspan366">25.40</tspan></text>
        <text
           xml:space="preserve"
           transform="matrix(1,0,0,-1,423.5572,305.0557)"
           style="font-variant:normal;font-weight:900;font-size:6px;font-family:Lato;-inkscape-font-specification:Lato-Heavy;writing-mode:lr-tb;fill:#2e313e;fill-opacity:1;fill-rule:nonzero;stroke:none"
           id="text372"><tspan
             x="0 3.0000174 7.8660173 11.762507 15.206508 20.915485 22.340269 24.157635 27.920319 31.226318 35.698956 41.407932 42.833694 47.399109 52.265106 55.265125 60.130344"
             y="0"
             sodipodi:role="line"
             id="tspan370">LOREM IPSUM DOLOR</tspan></text>
        <text
           xml:space="preserve"
           transform="matrix(1,0,0,-1,423.55603,297.99086)"
           style="font-variant:normal;font-weight:900;font-size:3.7439px;font-family:Lato;-inkscape-font-specification:Lato-Heavy;writing-mode:lr-tb;fill:#2e313e;fill-opacity:1;fill-rule:nonzero;stroke:none"
           id="text376"><tspan
             x="0 1.8740425 4.036128 5.4023147 7.4090452 10.567252 11.455924 12.429338 14.567105 16.223373 18.344471 21.50268 22.39135 24.529118 26.691204 27.642155 29.804239 31.139175 32.027847 33.685093 34.657726 36.071762 36.960434 38.877312 42.035519 44.020863 45.434902 46.319683 47.209332 48.987637 51.149723 53.271782 54.929028 56.935757 58.747269 60.14373 62.130047 63.54311 65.664207 67.670937 69.005875 69.894547 71.811424 73.949188 74.922607 77.060371 78.033783 79.690056 81.501564 82.474976 84.597771 86.588028 87.4767 89.483429 90.43438 91.407013"
             y="0"
             sodipodi:role="line"
             id="tspan374">Lorem ipsum dolor sit amet, consectetuer adipiscing elit</tspan></text>
      </g>
      <path
         d="m 4280.57,3827.39 c 0,-12.43 -10.08,-22.51 -22.51,-22.51 -12.43,0 -22.5,10.08 -22.5,22.51 0,12.43 10.07,22.5 22.5,22.5 12.43,0 22.51,-10.07 22.51,-22.5"
         style="fill:#20b046;fill-opacity:1;fill-rule:nonzero;stroke:none"
         id="path378" />
      <path
         d="m 4457.06,3827.39 c 0,-12.43 -10.08,-22.51 -22.5,-22.51 -12.43,0 -22.51,10.08 -22.51,22.51 0,12.43 10.08,22.5 22.51,22.5 12.42,0 22.5,-10.07 22.5,-22.5"
         style="fill:#2e313e;fill-opacity:1;fill-rule:nonzero;stroke:none"
         id="path380" />
      <path
         d="m 4633.55,3827.39 c 0,-12.43 -10.08,-22.51 -22.51,-22.51 -12.43,0 -22.5,10.08 -22.5,22.51 0,12.43 10.07,22.5 22.5,22.5 12.43,0 22.51,-10.07 22.51,-22.5"
         style="fill:#20b046;fill-opacity:1;fill-rule:nonzero;stroke:none"
         id="path382" />
      <path
         d="m 4810.04,3827.39 c 0,-12.43 -10.08,-22.51 -22.5,-22.51 -12.44,0 -22.51,10.08 -22.51,22.51 0,12.43 10.07,22.5 22.51,22.5 12.42,0 22.5,-10.07 22.5,-22.5"
         style="fill:#20b046;fill-opacity:1;fill-rule:nonzero;stroke:none"
         id="path384" />
      <path
         d="m 4986.53,3827.39 c 0,-12.43 -10.08,-22.51 -22.51,-22.51 -12.43,0 -22.51,10.08 -22.51,22.51 0,12.43 10.08,22.5 22.51,22.5 12.43,0 22.51,-10.07 22.51,-22.5"
         style="fill:#20b046;fill-opacity:1;fill-rule:nonzero;stroke:none"
         id="path386" />
      <path
         d="m 5163.01,3827.39 c 0,-12.43 -10.07,-22.51 -22.51,-22.51 -12.42,0 -22.5,10.08 -22.5,22.51 0,12.43 10.08,22.5 22.5,22.5 12.44,0 22.51,-10.07 22.51,-22.5"
         style="fill:#20b046;fill-opacity:1;fill-rule:nonzero;stroke:none"
         id="path388" />
      <path
         d="m 5339.5,3827.39 c 0,-12.43 -10.07,-22.51 -22.5,-22.51 -12.43,0 -22.51,10.08 -22.51,22.51 0,12.43 10.08,22.5 22.51,22.5 12.43,0 22.5,-10.07 22.5,-22.5"
         style="fill:#20b046;fill-opacity:1;fill-rule:nonzero;stroke:none"
         id="path390" />
      <path
         d="m 5515.99,3827.39 c 0,-12.43 -10.08,-22.51 -22.51,-22.51 -12.42,0 -22.5,10.08 -22.5,22.51 0,12.43 10.08,22.5 22.5,22.5 12.43,0 22.51,-10.07 22.51,-22.5"
         style="fill:#20b046;fill-opacity:1;fill-rule:nonzero;stroke:none"
         id="path392" />
      <path
         d="m 5692.48,3827.39 c 0,-12.43 -10.07,-22.51 -22.5,-22.51 -12.43,0 -22.51,10.08 -22.51,22.51 0,12.43 10.08,22.5 22.51,22.5 12.43,0 22.5,-10.07 22.5,-22.5"
         style="fill:#2e313e;fill-opacity:1;fill-rule:nonzero;stroke:none"
         id="path394" />
      <path
         d="m 5868.97,3827.39 c 0,-12.43 -10.08,-22.51 -22.51,-22.51 -12.43,0 -22.5,10.08 -22.5,22.51 0,12.43 10.07,22.5 22.5,22.5 12.43,0 22.51,-10.07 22.51,-22.5"
         style="fill:#2e313e;fill-opacity:1;fill-rule:nonzero;stroke:none"
         id="path396" />
      <path
         d="m 6045.46,3827.39 c 0,-12.43 -10.08,-22.51 -22.5,-22.51 -12.44,0 -22.51,10.08 -22.51,22.51 0,12.43 10.07,22.5 22.51,22.5 12.42,0 22.5,-10.07 22.5,-22.5"
         style="fill:#20b046;fill-opacity:1;fill-rule:nonzero;stroke:none"
         id="path398" />
      <path
         d="m 6221.95,3827.39 c 0,-12.43 -10.08,-22.51 -22.51,-22.51 -12.43,0 -22.5,10.08 -22.5,22.51 0,12.43 10.07,22.5 22.5,22.5 12.43,0 22.51,-10.07 22.51,-22.5"
         style="fill:#20b046;fill-opacity:1;fill-rule:nonzero;stroke:none"
         id="path400" />
      <path
         d="m 4280.57,3623.68 c 0,-12.43 -10.08,-22.51 -22.51,-22.51 -12.43,0 -22.5,10.08 -22.5,22.51 0,12.43 10.07,22.5 22.5,22.5 12.43,0 22.51,-10.07 22.51,-22.5"
         style="fill:#20b046;fill-opacity:1;fill-rule:nonzero;stroke:none"
         id="path402" />
      <path
         d="m 4457.06,3623.68 c 0,-12.43 -10.08,-22.51 -22.5,-22.51 -12.43,0 -22.51,10.08 -22.51,22.51 0,12.43 10.08,22.5 22.51,22.5 12.42,0 22.5,-10.07 22.5,-22.5"
         style="fill:#20b046;fill-opacity:1;fill-rule:nonzero;stroke:none"
         id="path404" />
      <path
         d="m 4633.55,3623.68 c 0,-12.43 -10.08,-22.51 -22.51,-22.51 -12.43,0 -22.5,10.08 -22.5,22.51 0,12.43 10.07,22.5 22.5,22.5 12.43,0 22.51,-10.07 22.51,-22.5"
         style="fill:#2e313e;fill-opacity:1;fill-rule:nonzero;stroke:none"
         id="path406" />
      <path
         d="m 4810.04,3623.68 c 0,-12.43 -10.08,-22.51 -22.5,-22.51 -12.44,0 -22.51,10.08 -22.51,22.51 0,12.43 10.07,22.5 22.51,22.5 12.42,0 22.5,-10.07 22.5,-22.5"
         style="fill:#20b046;fill-opacity:1;fill-rule:nonzero;stroke:none"
         id="path408" />
      <path
         d="m 4986.53,3623.68 c 0,-12.43 -10.08,-22.51 -22.51,-22.51 -12.43,0 -22.51,10.08 -22.51,22.51 0,12.43 10.08,22.5 22.51,22.5 12.43,0 22.51,-10.07 22.51,-22.5"
         style="fill:#2e313e;fill-opacity:1;fill-rule:nonzero;stroke:none"
         id="path410" />
      <path
         d="m 5163.01,3623.68 c 0,-12.43 -10.07,-22.51 -22.51,-22.51 -12.42,0 -22.5,10.08 -22.5,22.51 0,12.43 10.08,22.5 22.5,22.5 12.44,0 22.51,-10.07 22.51,-22.5"
         style="fill:#20b046;fill-opacity:1;fill-rule:nonzero;stroke:none"
         id="path412" />
      <path
         d="m 5339.5,3623.68 c 0,-12.43 -10.07,-22.51 -22.5,-22.51 -12.43,0 -22.51,10.08 -22.51,22.51 0,12.43 10.08,22.5 22.51,22.5 12.43,0 22.5,-10.07 22.5,-22.5"
         style="fill:#20b046;fill-opacity:1;fill-rule:nonzero;stroke:none"
         id="path414" />
      <path
         d="m 5515.99,3623.68 c 0,-12.43 -10.08,-22.51 -22.51,-22.51 -12.42,0 -22.5,10.08 -22.5,22.51 0,12.43 10.08,22.5 22.5,22.5 12.43,0 22.51,-10.07 22.51,-22.5"
         style="fill:#2e313e;fill-opacity:1;fill-rule:nonzero;stroke:none"
         id="path416" />
      <path
         d="m 5692.48,3623.68 c 0,-12.43 -10.07,-22.51 -22.5,-22.51 -12.43,0 -22.51,10.08 -22.51,22.51 0,12.43 10.08,22.5 22.51,22.5 12.43,0 22.5,-10.07 22.5,-22.5"
         style="fill:#20b046;fill-opacity:1;fill-rule:nonzero;stroke:none"
         id="path418" />
      <path
         d="m 5868.97,3623.68 c 0,-12.43 -10.08,-22.51 -22.51,-22.51 -12.43,0 -22.5,10.08 -22.5,22.51 0,12.43 10.07,22.5 22.5,22.5 12.43,0 22.51,-10.07 22.51,-22.5"
         style="fill:#20b046;fill-opacity:1;fill-rule:nonzero;stroke:none"
         id="path420" />
      <path
         d="m 6045.46,3623.68 c 0,-12.43 -10.08,-22.51 -22.5,-22.51 -12.44,0 -22.51,10.08 -22.51,22.51 0,12.43 10.07,22.5 22.51,22.5 12.42,0 22.5,-10.07 22.5,-22.5"
         style="fill:#2e313e;fill-opacity:1;fill-rule:nonzero;stroke:none"
         id="path422" />
      <path
         d="m 6221.95,3623.68 c 0,-12.43 -10.08,-22.51 -22.51,-22.51 -12.43,0 -22.5,10.08 -22.5,22.51 0,12.43 10.07,22.5 22.5,22.5 12.43,0 22.51,-10.07 22.51,-22.5"
         style="fill:#20b046;fill-opacity:1;fill-rule:nonzero;stroke:none"
         id="path424" />
      <path
         d="m 4280.57,3419.96 c 0,-12.42 -10.08,-22.5 -22.51,-22.5 -12.43,0 -22.5,10.08 -22.5,22.5 0,12.43 10.07,22.51 22.5,22.51 12.43,0 22.51,-10.08 22.51,-22.51"
         style="fill:#20b046;fill-opacity:1;fill-rule:nonzero;stroke:none"
         id="path426" />
      <path
         d="m 4457.06,3419.96 c 0,-12.42 -10.08,-22.5 -22.5,-22.5 -12.43,0 -22.51,10.08 -22.51,22.5 0,12.43 10.08,22.51 22.51,22.51 12.42,0 22.5,-10.08 22.5,-22.51"
         style="fill:#20b046;fill-opacity:1;fill-rule:nonzero;stroke:none"
         id="path428" />
      <path
         d="m 4633.55,3419.96 c 0,-12.42 -10.08,-22.5 -22.51,-22.5 -12.43,0 -22.5,10.08 -22.5,22.5 0,12.43 10.07,22.51 22.5,22.51 12.43,0 22.51,-10.08 22.51,-22.51"
         style="fill:#20b046;fill-opacity:1;fill-rule:nonzero;stroke:none"
         id="path430" />
      <path
         d="m 4810.04,3419.96 c 0,-12.42 -10.08,-22.5 -22.5,-22.5 -12.44,0 -22.51,10.08 -22.51,22.5 0,12.43 10.07,22.51 22.51,22.51 12.42,0 22.5,-10.08 22.5,-22.51"
         style="fill:#20b046;fill-opacity:1;fill-rule:nonzero;stroke:none"
         id="path432" />
      <path
         d="m 4986.53,3419.96 c 0,-12.42 -10.08,-22.5 -22.51,-22.5 -12.43,0 -22.51,10.08 -22.51,22.5 0,12.43 10.08,22.51 22.51,22.51 12.43,0 22.51,-10.08 22.51,-22.51"
         style="fill:#20b046;fill-opacity:1;fill-rule:nonzero;stroke:none"
         id="path434" />
      <path
         d="m 5163.01,3419.96 c 0,-12.42 -10.07,-22.5 -22.51,-22.5 -12.42,0 -22.5,10.08 -22.5,22.5 0,12.43 10.08,22.51 22.5,22.51 12.44,0 22.51,-10.08 22.51,-22.51"
         style="fill:#2e313e;fill-opacity:1;fill-rule:nonzero;stroke:none"
         id="path436" />
      <path
         d="m 5339.5,3419.96 c 0,-12.42 -10.07,-22.5 -22.5,-22.5 -12.43,0 -22.51,10.08 -22.51,22.5 0,12.43 10.08,22.51 22.51,22.51 12.43,0 22.5,-10.08 22.5,-22.51"
         style="fill:#20b046;fill-opacity:1;fill-rule:nonzero;stroke:none"
         id="path438" />
      <path
         d="m 5515.99,3419.96 c 0,-12.42 -10.08,-22.5 -22.51,-22.5 -12.42,0 -22.5,10.08 -22.5,22.5 0,12.43 10.08,22.51 22.5,22.51 12.43,0 22.51,-10.08 22.51,-22.51"
         style="fill:#20b046;fill-opacity:1;fill-rule:nonzero;stroke:none"
         id="path440" />
      <path
         d="m 5692.48,3419.96 c 0,-12.42 -10.07,-22.5 -22.5,-22.5 -12.43,0 -22.51,10.08 -22.51,22.5 0,12.43 10.08,22.51 22.51,22.51 12.43,0 22.5,-10.08 22.5,-22.51"
         style="fill:#20b046;fill-opacity:1;fill-rule:nonzero;stroke:none"
         id="path442" />
      <path
         d="m 5868.97,3419.96 c 0,-12.42 -10.08,-22.5 -22.51,-22.5 -12.43,0 -22.5,10.08 -22.5,22.5 0,12.43 10.07,22.51 22.5,22.51 12.43,0 22.51,-10.08 22.51,-22.51"
         style="fill:#20b046;fill-opacity:1;fill-rule:nonzero;stroke:none"
         id="path444" />
      <path
         d="m 6045.46,3419.96 c 0,-12.42 -10.08,-22.5 -22.5,-22.5 -12.44,0 -22.51,10.08 -22.51,22.5 0,12.43 10.07,22.51 22.51,22.51 12.42,0 22.5,-10.08 22.5,-22.51"
         style="fill:#2e313e;fill-opacity:1;fill-rule:nonzero;stroke:none"
         id="path446" />
      <path
         d="m 6221.95,3419.96 c 0,-12.42 -10.08,-22.5 -22.51,-22.5 -12.43,0 -22.5,10.08 -22.5,22.5 0,12.43 10.07,22.51 22.5,22.51 12.43,0 22.51,-10.08 22.51,-22.51"
         style="fill:#20b046;fill-opacity:1;fill-rule:nonzero;stroke:none"
         id="path448" />
      <path
         d="M 6150.44,1218.48 H 4405.25 v 966.15 h 1745.19 z"
         style="fill:none;stroke:#7b5722;stroke-width:3.74682;stroke-linecap:butt;stroke-linejoin:miter;stroke-miterlimit:10;stroke-dasharray:none;stroke-opacity:1"
         id="path450" />
      <path
         d="M 6150.44,2023.6 H 4405.25"
         style="fill:none;stroke:#7b5722;stroke-width:3.74682;stroke-linecap:butt;stroke-linejoin:miter;stroke-miterlimit:10;stroke-dasharray:none;stroke-opacity:1"
         id="path452" />
      <path
         d="M 6150.44,1862.58 H 4405.25"
         style="fill:none;stroke:#7b5722;stroke-width:3.74682;stroke-linecap:butt;stroke-linejoin:miter;stroke-miterlimit:10;stroke-dasharray:none;stroke-opacity:1"
         id="path454" />
      <path
         d="M 6150.44,1701.55 H 4405.25"
         style="fill:none;stroke:#7b5722;stroke-width:3.74682;stroke-linecap:butt;stroke-linejoin:miter;stroke-miterlimit:10;stroke-dasharray:none;stroke-opacity:1"
         id="path456" />
      <path
         d="M 6150.44,1540.53 H 4405.25"
         style="fill:none;stroke:#7b5722;stroke-width:3.74682;stroke-linecap:butt;stroke-linejoin:miter;stroke-miterlimit:10;stroke-dasharray:none;stroke-opacity:1"
         id="path458" />
      <path
         d="M 4405.25,1379.51 H 6150.44"
         style="fill:none;stroke:#7b5722;stroke-width:3.74682;stroke-linecap:butt;stroke-linejoin:miter;stroke-miterlimit:10;stroke-dasharray:none;stroke-opacity:1"
         id="path460" />
      <path
         d="m 4696.12,1218.48 v 966.15"
         style="fill:none;stroke:#7b5722;stroke-width:3.74682;stroke-linecap:butt;stroke-linejoin:miter;stroke-miterlimit:10;stroke-dasharray:none;stroke-opacity:1"
         id="path462" />
      <path
         d="m 4986.98,1218.48 v 966.15"
         style="fill:none;stroke:#7b5722;stroke-width:3.74682;stroke-linecap:butt;stroke-linejoin:miter;stroke-miterlimit:10;stroke-dasharray:none;stroke-opacity:1"
         id="path464" />
      <path
         d="m 5277.85,1218.48 v 966.15"
         style="fill:none;stroke:#7b5722;stroke-width:3.74682;stroke-linecap:butt;stroke-linejoin:miter;stroke-miterlimit:10;stroke-dasharray:none;stroke-opacity:1"
         id="path466" />
      <path
         d="m 5568.71,1218.48 v 966.15"
         style="fill:none;stroke:#7b5722;stroke-width:3.74682;stroke-linecap:butt;stroke-linejoin:miter;stroke-miterlimit:10;stroke-dasharray:none;stroke-opacity:1"
         id="path468" />
      <path
         d="m 5859.57,1218.48 v 966.15"
         style="fill:none;stroke:#7b5722;stroke-width:3.74682;stroke-linecap:butt;stroke-linejoin:miter;stroke-miterlimit:10;stroke-dasharray:none;stroke-opacity:1"
         id="path470" />
      <path
         d="m 6146.81,2022.75 -287.24,-160.17 -290.86,-161.03 -290.86,-88.41 -290.87,-232.79 -577.86,-158.98"
         style="fill:none;stroke:#12ab4a;stroke-width:9.64187;stroke-linecap:round;stroke-linejoin:round;stroke-miterlimit:10;stroke-dasharray:none;stroke-opacity:1"
         id="path472" />
      <path
         d="m 6150.44,2085.62 -290.87,-115.7 -385.68,-429.39 -486.91,205.22 -290.86,-292.64 -290.87,168.96"
         style="fill:none;stroke:#342821;stroke-width:10;stroke-linecap:butt;stroke-linejoin:miter;stroke-miterlimit:10;stroke-dasharray:none;stroke-opacity:1"
         id="path474" />
      <g
         id="g476"
         transform="scale(10)">
        <text
           xml:space="preserve"
           transform="matrix(1,0,0,-1,440.208,109.89)"
           style="font-variant:normal;font-weight:900;font-size:10px;font-family:Lato;-inkscape-font-specification:Lato-Heavy;writing-mode:lr-tb;fill:#2e313e;fill-opacity:1;fill-rule:nonzero;stroke:none"
           id="text480"><tspan
             x="0 5.8000002 11.6 13.98 19.780001"
             y="0"
             sodipodi:role="line"
             id="tspan478">50.26</tspan></text>
      </g>
      <g
         id="g482"
         transform="scale(10)">
        <text
           xml:space="preserve"
           transform="matrix(1,0,0,-1,440.651,104.585)"
           style="font-variant:normal;font-weight:normal;font-size:3.06949px;font-family:BebasNeueBook;-inkscape-font-specification:BebasNeueBook;writing-mode:lr-tb;fill:#ffffff;fill-opacity:1;fill-rule:nonzero;stroke:none"
           id="text486"><tspan
             x="0 1.8877026 3.9165034 5.9609466 7.8974695 10.307133 11.642572 12.888654 14.871559 16.866693 18.880344 21.289518 22.62496 24.665989 26.69479 28.582493 30.611782"
             y="0"
             sodipodi:role="line"
             id="tspan484">LOREM IPSUM DOLOR</tspan></text>
      </g>
      <path
         d="m 6083.68,1132.44 c 0,-8.89 -7.21,-16.1 -16.1,-16.1 -8.88,0 -16.09,7.21 -16.09,16.1 0,8.89 7.21,16.09 16.09,16.09 8.89,0 16.1,-7.2 16.1,-16.09"
         style="fill:#20b046;fill-opacity:1;fill-rule:nonzero;stroke:none"
         id="path488" />
      <path
         d="m 6146.57,1132.44 c 0,-8.89 -7.21,-16.1 -16.1,-16.1 -8.88,0 -16.08,7.21 -16.08,16.1 0,8.89 7.2,16.09 16.08,16.09 8.89,0 16.1,-7.2 16.1,-16.09"
         style="fill:#2e313e;fill-opacity:1;fill-rule:nonzero;stroke:none"
         id="path490" />
      <g
         id="g492"
         transform="scale(10)">
        <text
           xml:space="preserve"
           transform="matrix(1,0,0,-1,430.822,121.862)"
           style="font-variant:normal;font-weight:900;font-size:3.79149px;font-family:Lato;-inkscape-font-specification:Lato-Heavy;writing-mode:lr-tb;fill:#2e313e;fill-opacity:1;fill-rule:nonzero;stroke:none"
           id="text506"><tspan
             x="0 2.1990643 4.3981285"
             y="0"
             sodipodi:role="line"
             id="tspan494">10%</tspan><tspan
             x="0 2.1990643 4.3981285"
             y="-15.9629"
             sodipodi:role="line"
             id="tspan496">20%</tspan><tspan
             x="0 2.1990643 4.3981285"
             y="-31.924999"
             sodipodi:role="line"
             id="tspan498">30%</tspan><tspan
             x="0 2.1990643 4.3981285"
             y="-47.887901"
             sodipodi:role="line"
             id="tspan500">40%</tspan><tspan
             x="0 2.1990643 4.3981285"
             y="-63.848801"
             sodipodi:role="line"
             id="tspan502">50%</tspan><tspan
             x="0 2.1990643 4.3981285"
             y="-79.810898"
             sodipodi:role="line"
             id="tspan504">60%</tspan></text>
        <text
           xml:space="preserve"
           transform="matrix(1,0,0,-1,441.2052,100.1999)"
           style="font-variant:normal;font-weight:900;font-size:6px;font-family:Lato;-inkscape-font-specification:Lato-Heavy;writing-mode:lr-tb;fill:#2e313e;fill-opacity:1;fill-rule:nonzero;stroke:none"
           id="text510"><tspan
             x="0 3.0000174 7.8660173 11.762507 15.206508 20.915485 22.340269 24.157635 27.920319 31.226318 35.698956 41.407932 42.833694 47.399109 52.265106 55.265125 60.130344"
             y="0"
             sodipodi:role="line"
             id="tspan508">LOREM IPSUM DOLOR</tspan></text>
        <text
           xml:space="preserve"
           transform="matrix(1,0,0,-1,441.2052,93.13388)"
           style="font-variant:normal;font-weight:900;font-size:3.7439px;font-family:Lato;-inkscape-font-specification:Lato-Heavy;writing-mode:lr-tb;fill:#2e313e;fill-opacity:1;fill-rule:nonzero;stroke:none"
           id="text514"><tspan
             x="0 1.8740425 4.036128 5.4023147 7.4090452 10.567252 11.455924 12.429338 14.567105 16.223373 18.344471 21.50268 22.39135 24.529118 26.691204 27.642155 29.804239 31.139175 32.027847 33.685093 34.657726 36.071762 36.960434 38.877312 42.035519 44.020863 45.434902 46.319683 47.209332 48.987637 51.149723 53.271782 54.929028 56.935757 58.747269 60.14373 62.130047 63.54311 65.664207 67.670937 69.005875 69.894547 71.811424 73.949188 74.922607 77.060371 78.033783 79.690056 81.501564 82.474976 84.597771 86.588028 87.4767 89.483429 90.43438 91.407013"
             y="0"
             sodipodi:role="line"
             id="tspan512">Lorem ipsum dolor sit amet, consectetuer adipiscing elit</tspan></text>
      </g>
      <path
         d="m 7347.55,2855.68 h -943.06 v 1114.39 h 943.06 V 2855.68"
         style="fill:#ffffff;fill-opacity:1;fill-rule:nonzero;stroke:none"
         id="path516" />
      <g
         id="g518"
         transform="scale(10)">
        <text
           xml:space="preserve"
           transform="matrix(1,0,0,-1,653.058,312.632)"
           style="font-variant:normal;font-weight:500;font-size:5px;font-family:Lato;-inkscape-font-specification:Lato-Medium;writing-mode:lr-tb;fill:#2e313e;fill-opacity:1;fill-rule:nonzero;stroke:none"
           id="text528"><tspan
             x="0 2.4077151 5.2527151 6.9905276 9.637969 13.769824 15.03251 16.249317 19.061827 21.234659 24.029659 28.161514 29.4242 32.2342 35.079201 36.2742 39.119198 40.846756 42.108467 44.2813 45.498104 47.308643 48.570351 51.068428 55.200283 57.828194 59.638195 60.783192"
             y="0"
             sodipodi:role="line"
             id="tspan520">Lorem ipsum dolor sit amet, </tspan><tspan
             x="-4.4980502 -2.1503839 0.69461602 3.4919598 5.6643033 8.3117447 10.704332 12.499245 15.126667 16.936666 19.731667 22.379108 24.106667 25.368864 27.866404 30.676403 31.893698 34.706207 35.923504 38.095848 40.488434 41.70573 44.503075 47.113071 48.375271 51.022713 52.217712 53.435005 55.245007 56.390007 57.652203 59.824547 62.471989 65.28199"
             y="6"
             sodipodi:role="line"
             id="tspan522">consectetuer adipiscing elit, sed </tspan><tspan
             x="-1.90508 0.90491998 2.11992 4.6149201 8.7449198 10.00492 12.79992 15.64492 18.43992 21.234921 25.36492 29.450779 31.920515 33.182713 35.980057 37.197353 40.007351 42.804695 44.066895 46.714333 49.509335 50.726627 52.898972 57.031315 59.876316 62.686317"
             y="12"
             sodipodi:role="line"
             id="tspan524">diam nonummy nibh euismod </tspan><tspan
             x="20.541821 23.65682 26.45182 28.84182 30.05682 32.866821 35.661819 38.430893 40.240891"
             y="18"
             sodipodi:role="line"
             id="tspan526">!ncidunt </tspan></text>
        <text
           xml:space="preserve"
           transform="matrix(1,0,0,-1,665.9717,379.634)"
           style="font-variant:normal;font-weight:normal;font-size:5.86178px;font-family:Lato;-inkscape-font-specification:Lato-Regular;writing-mode:lr-tb;fill:#2e313e;fill-opacity:1;fill-rule:nonzero;stroke:none"
           id="text532"><tspan
             x="0 2.7959113 6.1195407 8.1332092 11.228912 16.050226 17.550207 18.957033 22.24217 24.780321 28.04792"
             y="0"
             sodipodi:role="line"
             id="tspan530">Lorem ipsum</tspan></text>
      </g>
      <g
         id="g534"
         transform="scale(10)">
        <text
           xml:space="preserve"
           transform="matrix(1,0,0,-1,666.043,366.296)"
           style="font-variant:normal;font-weight:900;font-size:13.2559px;font-family:Lato;-inkscape-font-specification:Lato-Black;writing-mode:lr-tb;fill:#20b046;fill-opacity:1;fill-rule:nonzero;stroke:none"
           id="text538"><tspan
             x="0 7.6884222 10.869105 18.557528 26.245949"
             y="0"
             sodipodi:role="line"
             id="tspan536">5,894</tspan></text>
      </g>
      <path
         d="m 6583.51,3218.13 c 6.36,133.13 116.29,239.11 251,239.11 134.7,0 244.63,-105.98 250.99,-239.11 h 97.47 c -6.44,186.96 -159.94,336.57 -348.46,336.57 -188.54,0 -342.03,-149.61 -348.47,-336.57 h 97.47"
         style="fill:#20b046;fill-opacity:1;fill-rule:nonzero;stroke:none"
         id="path540" />
      <path
         d="m 6833.39,3554.68 c -188.02,-0.6 -340.92,-149.96 -347.35,-336.55 h 97.47 c 6.34,132.76 115.69,238.49 249.88,239.08 v 97.47"
         style="fill:#2e313e;fill-opacity:1;fill-rule:nonzero;stroke:none"
         id="path542" />
      <path
         d="m 6913.77,3379.46 h -160.08 c -6.03,0 -10.96,-4.93 -10.96,-10.96 v -81.68 c 0,-6.02 4.93,-10.96 10.96,-10.96 h 98.03 v -35.42 l 30.36,35.42 h 31.69 c 6.02,0 10.96,4.94 10.96,10.96 v 81.68 c 0,6.03 -4.94,10.96 -10.96,10.96"
         style="fill:#20b046;fill-opacity:1;fill-rule:nonzero;stroke:none"
         id="path544" />
      <g
         id="g546"
         transform="scale(10)">
        <text
           xml:space="preserve"
           transform="matrix(1,0,0,-1,677.421,329.717)"
           style="font-variant:normal;font-weight:normal;font-size:8.45716px;font-family:BebasNeueBold;-inkscape-font-specification:BebasNeueBold;writing-mode:lr-tb;fill:#ffffff;fill-opacity:1;fill-rule:nonzero;stroke:none"
           id="text550"><tspan
             x="0 4.1943479 8.3896742"
             y="0"
             sodipodi:role="line"
             id="tspan548">254</tspan></text>
      </g>
      <path
         d="m 7347.55,781.34 h -943.06 v 1940.67 h 943.06 V 781.34"
         style="fill:#ffffff;fill-opacity:1;fill-rule:nonzero;stroke:none"
         id="path552" />
      <g
         id="g554"
         transform="scale(10)">
        <text
           xml:space="preserve"
           transform="matrix(1,0,0,-1,653.058,108.608)"
           style="font-variant:normal;font-weight:500;font-size:5px;font-family:Lato;-inkscape-font-specification:Lato-Medium;writing-mode:lr-tb;fill:#2e313e;fill-opacity:1;fill-rule:nonzero;stroke:none"
           id="text564"><tspan
             x="0 2.4077151 5.2527151 6.9905276 9.637969 13.769824 15.03251 16.249317 19.061827 21.234659 24.029659 28.161514 29.4242 32.2342 35.079201 36.2742 39.119198 40.846756 42.108467 44.2813 45.498104 47.308643 48.570351 51.068428 55.200283 57.828194 59.638195 60.783192"
             y="0"
             sodipodi:role="line"
             id="tspan556">Lorem ipsum dolor sit amet, </tspan><tspan
             x="-4.4980502 -2.1503839 0.69461602 3.4919598 5.6643033 8.3117447 10.704332 12.499245 15.126667 16.936666 19.731667 22.379108 24.106667 25.368864 27.866404 30.676403 31.893698 34.706207 35.923504 38.095848 40.488434 41.70573 44.503075 47.113071 48.375271 51.022713 52.217712 53.435005 55.245007 56.390007 57.652203 59.824547 62.471989 65.28199"
             y="6.0011702"
             sodipodi:role="line"
             id="tspan558">consectetuer adipiscing elit, sed </tspan><tspan
             x="-1.90508 0.90491998 2.11992 4.6149201 8.7449198 10.00492 12.79992 15.64492 18.43992 21.234921 25.36492 29.450779 31.920515 33.182713 35.980057 37.197353 40.007351 42.804695 44.066895 46.714333 49.509335 50.726627 52.898972 57.031315 59.876316 62.686317"
             y="12.00117"
             sodipodi:role="line"
             id="tspan560">diam nonummy nibh euismod </tspan><tspan
             x="20.541821 23.65682 26.45182 28.84182 30.05682 32.866821 35.661819 38.430893 40.240891"
             y="18.001169"
             sodipodi:role="line"
             id="tspan562">!ncidunt </tspan></text>
        <text
           xml:space="preserve"
           transform="matrix(1,0,0,-1,665.97091,249.62983)"
           style="font-variant:normal;font-weight:normal;font-size:6.65141px;font-family:Lato;-inkscape-font-specification:Lato-Regular;writing-mode:lr-tb;fill:#2e313e;fill-opacity:1;fill-rule:nonzero;stroke:none"
           id="text568"><tspan
             x="0 3.1728668 6.9442163 9.2284155 12.74036 18.211042 19.913803 21.510141 25.237665 28.117725 31.825735"
             y="0"
             sodipodi:role="line"
             id="tspan566">Lorem ipsum</tspan></text>
      </g>
      <g
         id="g570"
         transform="scale(10)">
        <text
           xml:space="preserve"
           transform="matrix(1,0,0,-1,666.053,234.497)"
           style="font-variant:normal;font-weight:900;font-size:15.0416px;font-family:Lato;-inkscape-font-specification:Lato-Black;writing-mode:lr-tb;fill:#20b046;fill-opacity:1;fill-rule:nonzero;stroke:none"
           id="text574"><tspan
             x="0 8.7241278 12.334112 21.058241 29.782368"
             y="0"
             sodipodi:role="line"
             id="tspan572">3,395</tspan></text>
      </g>
      <path
         d="m 7183.68,2079.96 h -659.19 v 122.96 h 659.19 v -122.96"
         style="fill:#2e313e;fill-opacity:1;fill-rule:nonzero;stroke:none"
         id="path576" />
      <path
         d="m 7183.68,1805.35 h -659.19 v 122.96 h 659.19 v -122.96"
         style="fill:#2e313e;fill-opacity:1;fill-rule:nonzero;stroke:none"
         id="path578" />
      <path
         d="m 7183.68,1530.73 h -659.19 v 122.96 h 659.19 v -122.96"
         style="fill:#2e313e;fill-opacity:1;fill-rule:nonzero;stroke:none"
         id="path580" />
      <path
         d="m 7183.68,1256.12 h -659.19 v 122.96 h 659.19 v -122.96"
         style="fill:#2e313e;fill-opacity:1;fill-rule:nonzero;stroke:none"
         id="path582" />
      <path
         d="m 6774.22,2079.96 h -249.73 v 122.96 h 249.73 v -122.96"
         style="fill:#20b046;fill-opacity:1;fill-rule:nonzero;stroke:none"
         id="path584" />
      <path
         d="m 7011.15,1805.35 h -486.66 v 122.96 h 486.66 v -122.96"
         style="fill:#20b046;fill-opacity:1;fill-rule:nonzero;stroke:none"
         id="path586" />
      <path
         d="m 6649.35,1530.73 h -124.86 v 122.96 h 124.86 v -122.96"
         style="fill:#20b046;fill-opacity:1;fill-rule:nonzero;stroke:none"
         id="path588" />
      <path
         d="m 6858.02,1256.12 h -333.53 v 122.96 h 333.53 v -122.96"
         style="fill:#20b046;fill-opacity:1;fill-rule:nonzero;stroke:none"
         id="path590" />
      <path
         d="m 7347.55,208 h -943.06 v 450.949 h 943.06 V 208"
         style="fill:#ffffff;fill-opacity:1;fill-rule:nonzero;stroke:none"
         id="path592" />
      <path
         d="M 6728.38,426.211 H 6681.4 V 248.629 h 46.98 v 177.582"
         style="fill:#20b046;fill-opacity:1;fill-rule:nonzero;stroke:none"
         id="path594" />
      <path
         d="m 6874.94,470.379 h -46.97 v -221.75 h 46.97 v 221.75"
         style="fill:#2e313e;fill-opacity:1;fill-rule:nonzero;stroke:none"
         id="path596" />
      <path
         d="m 7021.49,504.82 h -46.96 V 248.629 h 46.96 V 504.82"
         style="fill:#20b046;fill-opacity:1;fill-rule:nonzero;stroke:none"
         id="path598" />
      <path
         d="m 7168.05,561.148 h -46.97 V 248.629 h 46.97 v 312.519"
         style="fill:#2e313e;fill-opacity:1;fill-rule:nonzero;stroke:none"
         id="path600" />
      <g
         id="g602"
         transform="scale(10)">
        <text
           xml:space="preserve"
           transform="matrix(1,0,0,-1,648.035,56.4332)"
           style="font-variant:normal;font-weight:900;font-size:6.06548px;font-family:Lato;-inkscape-font-specification:Lato-Heavy;writing-mode:lr-tb;fill:#2e313e;fill-opacity:1;fill-rule:nonzero;stroke:none"
           id="text606"><tspan
             x="0 3.5179784 7.0365429 8.4801273 11.998105"
             y="0"
             sodipodi:role="line"
             id="tspan604">50.26</tspan></text>
        <text
           xml:space="preserve"
           transform="matrix(1,0,0,-1,648.63891,50.55508)"
           style="font-variant:normal;font-weight:900;font-size:3.63929px;font-family:Lato;-inkscape-font-specification:Lato-Heavy;writing-mode:lr-tb;fill:#2e313e;fill-opacity:1;fill-rule:nonzero;stroke:none"
           id="text610"><tspan
             x="0 1.8193382 4.7714858 7.1347523 9.2237053 12.686574 13.550843 14.653548 16.935383 18.940632 21.653515 25.116383 25.980654 28.750153 31.701616 33.521931 36.473396"
             y="0"
             sodipodi:role="line"
             id="tspan608">LOREM IPSUM DOLOR</tspan></text>
      </g>
      <path
         d="m 2042.12,4882.82 h -128.66 v 18.75 h 128.66 v -18.75"
         style="fill:#2e313e;fill-opacity:1;fill-rule:nonzero;stroke:none"
         id="path612" />
      <path
         d="m 2042.12,4836.59 h -128.66 v 18.73 h 128.66 v -18.73"
         style="fill:#2e313e;fill-opacity:1;fill-rule:nonzero;stroke:none"
         id="path614" />
      <path
         d="m 2042.12,4790.34 h -128.66 v 18.74 h 128.66 v -18.74"
         style="fill:#2e313e;fill-opacity:1;fill-rule:nonzero;stroke:none"
         id="path616" />
    </g>
  </g>
</svg>
